<svg xmlns="http://www.w3.org/2000/svg" viewBox="0 0 2532.29 842.71"><defs><style>.a{fill:#1c5daa;}.b{fill:#161615;}</style></defs><title>DIGIEYE</title><path class="a" d="M271.28,984.57H627.09a89.39,89.39,0,0,0,78.4-46.44l181.89-332a89.44,89.44,0,0,0,0-85.9l-181.89-332a89.37,89.37,0,0,0-78.4-46.44H271.28a89.38,89.38,0,0,0-78.4,46.44L11,520.26a89.44,89.44,0,0,0,0,85.9l181.89,332a89.4,89.4,0,0,0,78.4,46.44m60-733.12H567.05a89.41,89.41,0,0,1,78.4,46.44L767.27,520.26a89.33,89.33,0,0,1,0,85.9L645.45,828.53A89.39,89.39,0,0,1,567.05,875H331.32a89.39,89.39,0,0,1-78.4-46.44L131.09,606.16a89.33,89.33,0,0,1,0-85.9L252.92,297.89a89.41,89.41,0,0,1,78.4-46.44" transform="translate(0 -141.86)"/><path class="b" d="M170.55,566.33A116.51,116.51,0,1,1,287.06,682.84,116.52,116.52,0,0,1,170.55,566.33" transform="translate(0 -141.86)"/><path class="b" d="M495.27,570.56A116.52,116.52,0,1,1,611.8,687.07,116.52,116.52,0,0,1,495.27,570.56" transform="translate(0 -141.86)"/><path class="a" d="M1061.42,412.44c91.64,0,142,56.07,142,144.4,0,98-52.94,157.14-144.39,157.14H956.63V412.44Zm-42.94,253.12h39.9c53.36,0,81.47-40,81.47-107.79,0-56-25.2-96.14-81-96.14h-40.34ZM1318.6,412.44V714h-61.47V412.44ZM1627.89,714h-45.22a290,290,0,0,1-4.58-35c-15.51,30.09-45.77,39.4-83.56,39.4-78.88,0-120.44-65.65-120.44-153.46,0-86.57,49-156.49,137.87-156.49,71.81,0,109,40.1,116.42,90.51h-60.31c-5.63-19-18.76-41.21-59.65-41.21-52.48,0-71.16,50.11-71.16,107.58,0,57.24,20.14,104.16,71,104.16,45.41,0,58.56-31.66,58.56-70.38v-1.42h-63V545.6h124Zm121.85-301.54V714h-61.47V412.44Z" transform="translate(0 -141.86)"/><path class="b" d="M2009.12,582.41H1878v81.16h144.73L2015.37,714H1818.11V412.44h196.5v50.8H1878v68.32h131.09ZM2137.89,714V600.34a17.12,17.12,0,0,0-2.59-9.75l-95.41-178.15h69.25c21.19,45.41,48.89,103,62.32,131.05,19.77-42.9,42.74-89.17,62.38-131h64.06L2201.84,589.3a15.68,15.68,0,0,0-2.48,9.26V714Zm379.37-131.57H2386.17v81.16H2530.9L2523.5,714H2326.25V412.44h196.5v50.8H2386.17v68.32h131.09Z" transform="translate(0 -141.86)"/><path class="b" d="M952.7,763.86a161.37,161.37,0,0,1,23.78-1.79c16.07,0,27.51,3.72,35.1,10.78s12.21,17.1,12.21,31.12-4.36,25.7-12.47,33.68S989.85,850.12,973,850.12a178.93,178.93,0,0,1-20.31-1Zm11.19,76.62a71.15,71.15,0,0,0,11.31.64c23.91,0,36.89-13.38,36.89-36.77.13-20.43-11.44-33.41-35.09-33.41a63.87,63.87,0,0,0-13.11,1.14Z" transform="translate(0 -141.86)"/><path class="b" d="M1049.48,762.71v86.64h-11.19V762.71Z" transform="translate(0 -141.86)"/><path class="b" d="M1134.94,845.48a80.33,80.33,0,0,1-26.6,4.76c-13.11,0-23.91-3.34-32.4-11.43-7.46-7.21-12.08-18.78-12.08-32.26.13-25.85,17.87-44.75,46.92-44.75,10,0,17.86,2.2,21.6,4l-2.7,9.12c-4.63-2.06-10.41-3.72-19.15-3.72-21.09,0-34.84,13.11-34.84,34.84,0,22,13.23,35,33.42,35,7.32,0,12.34-1,14.92-2.32V812.84h-17.62v-9h28.53Z" transform="translate(0 -141.86)"/><path class="b" d="M1163.22,762.71v86.64H1152V762.71Z" transform="translate(0 -141.86)"/><path class="b" d="M1199.19,772.22h-26.35v-9.51H1237v9.51h-26.47v77.13h-11.32Z" transform="translate(0 -141.86)"/><path class="b" d="M1251.11,822.09l-9,27.26h-11.57L1260,762.71h13.49L1303,849.35h-12l-9.26-27.26Zm28.41-8.73-8.48-25c-1.93-5.65-3.22-10.8-4.51-15.81h-.25c-1.29,5.15-2.7,10.41-4.38,15.69l-8.48,25.07Z" transform="translate(0 -141.86)"/><path class="b" d="M1315.74,762.71h11.2V840h37v9.39h-48.22Z" transform="translate(0 -141.86)"/><path class="b" d="M1415,772.22h-26.35v-9.51h64.14v9.51h-26.47v77.13H1415Z" transform="translate(0 -141.86)"/><path class="b" d="M1473.57,762.71V799h41.9V762.71h11.31v86.64h-11.31V808.73h-41.9v40.62h-11.19V762.71Z" transform="translate(0 -141.86)"/><path class="b" d="M1557.36,762.71v86.64h-11.19V762.71Z" transform="translate(0 -141.86)"/><path class="b" d="M1576.88,849.35V762.71h12.22l27.77,43.84a246,246,0,0,1,15.55,28.15l.26-.14c-1-11.56-1.29-22.11-1.29-35.61V762.71h10.54v86.64h-11.3l-27.53-44a275.23,275.23,0,0,1-16.18-28.92l-.4.13c.65,10.93.91,21.34.91,35.73v37Z" transform="translate(0 -141.86)"/><path class="b" d="M1727.39,845.48a80.33,80.33,0,0,1-26.6,4.76c-13.12,0-23.91-3.34-32.4-11.43-7.44-7.21-12.08-18.78-12.08-32.26.13-25.85,17.87-44.75,46.92-44.75,10,0,17.87,2.2,21.6,4l-2.7,9.12c-4.63-2.06-10.41-3.72-19.15-3.72-21.09,0-34.84,13.11-34.84,34.84,0,22,13.23,35,33.42,35,7.32,0,12.34-1,14.9-2.32V812.84h-17.6v-9h28.53Z" transform="translate(0 -141.86)"/><path class="b" d="M1742.94,835.72a39.57,39.57,0,0,0,20,5.65c11.44,0,18.13-6,18.13-14.77,0-8.11-4.63-12.74-16.33-17.23-14.14-5-22.89-12.34-22.89-24.55,0-13.51,11.19-23.52,28-23.52,8.87,0,15.3,2.05,19.15,4.24l-3.08,9.12a34.54,34.54,0,0,0-16.45-4.11c-11.82,0-16.33,7.06-16.33,13,0,8.1,5.28,12.09,17.22,16.71,14.67,5.66,22.11,12.73,22.11,25.46,0,13.36-9.89,24.93-30.33,24.93-8.36,0-17.48-2.44-22.11-5.52Z" transform="translate(0 -141.86)"/><path class="b" d="M1835.07,763.73a131,131,0,0,1,21.48-1.66c11,0,19.14,2.56,24.29,7.19,4.76,4.11,7.58,10.41,7.58,18.13s-2.31,14-6.69,18.51c-5.9,6.3-15.54,9.5-26.47,9.5a38,38,0,0,1-9-.77v34.72h-11.2Zm11.2,41.78a37.48,37.48,0,0,0,9.24.9c13.51,0,21.73-6.55,21.73-18.52,0-11.43-8.1-16.95-20.44-16.95a46.53,46.53,0,0,0-10.53.89Z" transform="translate(0 -141.86)"/><path class="b" d="M1903.45,762.71h11.19V840h37v9.39h-48.22Z" transform="translate(0 -141.86)"/><path class="b" d="M1978.12,822.09l-9,27.26h-11.57L1987,762.71h13.49l29.57,86.64h-12l-9.26-27.26Zm28.41-8.73-8.48-25c-1.93-5.65-3.22-10.8-4.51-15.81h-.25c-1.29,5.15-2.7,10.41-4.38,15.69l-8.48,25.07Z" transform="translate(0 -141.86)"/><path class="b" d="M2049.31,772.22H2023v-9.51h64.13v9.51h-26.47v77.13h-11.32Z" transform="translate(0 -141.86)"/><path class="b" d="M2141.6,808.73h-33.68V840h37.53v9.39h-48.72V762.71h46.79v9.37h-35.6v27.39h33.68Z" transform="translate(0 -141.86)"/><path class="b" d="M2160,762.71h46.66v9.37h-35.47v28.8h32.77v9.26h-32.77v39.21H2160Z" transform="translate(0 -141.86)"/><path class="b" d="M2296.59,805.13c0,29.82-18.12,45.63-40.23,45.63-22.89,0-39-17.74-39-44,0-27.51,17.1-45.5,40.23-45.5C2281.3,761.3,2296.59,779.42,2296.59,805.13Zm-67.23,1.42c0,18.51,10,35.09,27.63,35.09s27.78-16.33,27.78-36c0-17.23-9-35.22-27.64-35.22S2229.36,787.52,2229.36,806.55Z" transform="translate(0 -141.86)"/><path class="b" d="M2311.1,763.86a117.2,117.2,0,0,1,21.48-1.79c11.94,0,19.65,2.18,25.05,7.06,4.38,3.86,6.82,9.77,6.82,16.46,0,11.44-7.19,19-16.33,22.1v.39c6.69,2.31,10.68,8.48,12.73,17.48,2.83,12.09,4.89,20.44,6.69,23.79H2356c-1.41-2.45-3.34-9.9-5.79-20.7-2.58-12-7.19-16.45-17.35-16.84h-10.54v37.54H2311.1Zm11.19,39.47h11.43c12,0,19.55-6.56,19.55-16.46,0-11.18-8.1-16.07-19.92-16.2a45.43,45.43,0,0,0-11.06,1Z" transform="translate(0 -141.86)"/><path class="b" d="M2453.27,811.29c-.65-12.08-1.42-26.6-1.29-37.4h-.39c-3,10.16-6.55,20.94-10.93,32.91l-15.29,42h-8.48l-14-41.26c-4.11-12.22-7.58-23.4-10-33.68h-.26c-.26,10.8-.9,25.32-1.67,38.31l-2.32,37.15h-10.66l6-86.64h14.27l14.78,41.9c3.59,10.67,6.56,20.18,8.74,29.18h.38c2.2-8.73,5.28-18.25,9.14-29.18l15.42-41.9H2461l5.4,86.64h-10.93Z" transform="translate(0 -141.86)"/><path class="b" d="M2528.45,808.73h-33.68V840h37.52v9.39h-48.72V762.71h46.79v9.37h-35.59v27.39h33.68Z" transform="translate(0 -141.86)"/></svg>